# xmcd
#
# Track frame offsets: 
#        150
#        11300
#        23899
#        37003
#        51887
#        70243
#        80562
#        92041
#        105627
#        120215
#        131643
#        145569
#        156357
#        166251
#        179657
#
# Disc length: 2590 seconds
#
# Revision: 1
# Processed by: cddbd v1.5.2PL0 Copyright (c) Steve Scherf et al.
# Submitted via: ExactAudioCopy v1.3
#
DISCID=c00a1c0f
DTITLE=Ken Mullen - Tribute to Slim Whitman
DYEAR=2008
DGENRE=Country
TTITLE0=Rose Marie
TTITLE1=China Doll
TTITLE2=Just Call Me Lonesome from Now On
TTITLE3=Indian Love Call
TTITLE4=That Silver Haired Daddy of Mine
TTITLE5=Remember Me
TTITLE6=Silver Threads Among the Gold
TTITLE7=Love Song of the Waterfall
TTITLE8=When I Grow to Old to Dream
TTITLE9=A Petal from a Faded Rose
TTITLE10=Red River Valley
TTITLE11=A Fool Such as I
TTITLE12=My Heart Cries for You
TTITLE13=Down in the Valley
TTITLE14=I'm Thinking Tonight of My Blue Eyes
EXTD=
EXTT0=
EXTT1=
EXTT2=
EXTT3=
EXTT4=
EXTT5=
EXTT6=
EXTT7=
EXTT8=
EXTT9=
EXTT10=
EXTT11=
EXTT12=
EXTT13=
EXTT14=
PLAYORDER=
